<svg width="1024" height="500" viewBox="0 0 1024 500" fill="none" xmlns="http://www.w3.org/2000/svg">
  <defs>
    <linearGradient id="bg" x1="86" y1="32" x2="960" y2="500" gradientUnits="userSpaceOnUse">
      <stop offset="0" stop-color="#102235"/>
      <stop offset="1" stop-color="#08111B"/>
    </linearGradient>
    <linearGradient id="line" x1="604" y1="162" x2="876" y2="344" gradientUnits="userSpaceOnUse">
      <stop stop-color="#2A9D8F"/>
      <stop offset="1" stop-color="#C8A96E"/>
    </linearGradient>
  </defs>

  <rect width="1024" height="500" rx="36" fill="url(#bg)"/>

  <circle cx="182" cy="108" r="152" fill="#1E3247" opacity="0.28"/>
  <circle cx="848" cy="392" r="180" fill="#14283C" opacity="0.35"/>

  <g opacity="0.18">
    <circle cx="162" cy="250" r="114" stroke="#C8A96E" stroke-width="2"/>
    <circle cx="162" cy="250" r="84" stroke="#C8A96E" stroke-width="2"/>
    <path d="M48 250H276" stroke="#C8A96E" stroke-width="2" stroke-linecap="round"/>
  </g>

  <g transform="translate(88 74)">
    <circle cx="120" cy="120" r="92" fill="#C8A96E"/>
    <circle cx="156" cy="104" r="78" fill="#0D1B2A"/>

    <path d="M155 54C135 54 119 70 119 90V222C119 242 135 258 155 258C175 258 191 242 191 222V90C191 70 175 54 155 54Z" fill="#2A9D8F"/>
    <path d="M139 54H171L155 74L139 54Z" fill="#C8A96E"/>
    <path d="M140 196C151 206 160 206 171 196" stroke="#F0EDE6" stroke-width="10" stroke-linecap="round"/>
    <path d="M141 223C151 231 160 231 170 223" stroke="#F0EDE6" stroke-width="6" stroke-linecap="round"/>
    <circle cx="210" cy="74" r="12" fill="#F0EDE6"/>
  </g>

  <text x="366" y="190" fill="#F0EDE6" font-family="Avenir Next, Avenir, Verdana, sans-serif" font-size="86" font-weight="600" letter-spacing="2">Wird</text>
  <text x="366" y="244" fill="#C8A96E" font-family="Avenir Next, Avenir, Verdana, sans-serif" font-size="24" font-weight="600" letter-spacing="7">YOUR DAILY QURAN COMPANION</text>

  <text x="366" y="312" fill="#8FA3B8" font-family="Avenir Next, Avenir, Verdana, sans-serif" font-size="25" font-weight="400">
    Read with consistency. Reflect with meaning.
  </text>
  <text x="366" y="348" fill="#8FA3B8" font-family="Avenir Next, Avenir, Verdana, sans-serif" font-size="25" font-weight="400">
    Return without guilt when life interrupts.
  </text>

  <path d="M672 148C720 132 764 138 814 176C854 206 894 226 944 224" stroke="url(#line)" stroke-width="6" stroke-linecap="round"/>
  <path d="M672 214C716 196 754 201 798 234C839 265 881 282 940 279" stroke="url(#line)" stroke-width="4" stroke-linecap="round" opacity="0.7"/>
  <path d="M672 278C706 265 741 269 780 295C821 324 870 337 937 332" stroke="url(#line)" stroke-width="3" stroke-linecap="round" opacity="0.45"/>
</svg>
