<svg width="1200" height="1200" viewBox="0 0 1200 1200" fill="none" xmlns="http://www.w3.org/2000/svg">
  <defs>
    <filter id="shadow" x="177" y="133" width="846" height="752" filterUnits="userSpaceOnUse" color-interpolation-filters="sRGB">
      <feDropShadow dx="0" dy="18" stdDeviation="26" flood-color="#000000" flood-opacity="0.18"/>
    </filter>
  </defs>

  <g filter="url(#shadow)">
    <circle cx="482" cy="348" r="196" fill="#C8A96E" />
    <circle cx="556" cy="316" r="166" fill="#0B1526" fill-opacity="0"/>
    <circle cx="556" cy="316" r="166" fill="#0D1B2A" />

    <path d="M555 206C512 206 478 240 478 283V564C478 606 512 640 555 640C597 640 631 606 631 564V283C631 240 597 206 555 206Z" fill="#2A9D8F"/>
    <path d="M555 248C527 248 505 270 505 298V552C505 580 527 602 555 602C582 602 604 580 604 552V298C604 270 582 248 555 248Z" fill="#4FC0B3" fill-opacity="0.28"/>
    <path d="M521 206H589L555 246L521 206Z" fill="#C8A96E"/>
    <path d="M521 518C544 540 563 540 585 518" stroke="#F0EDE6" stroke-width="18" stroke-linecap="round"/>
    <path d="M522 575C543 593 563 593 584 575" stroke="#F0EDE6" stroke-width="10" stroke-linecap="round" opacity="0.85"/>
    <circle cx="672" cy="246" r="24" fill="#F0EDE6" opacity="0.92"/>
  </g>

  <text x="600" y="805" text-anchor="middle" fill="#F0EDE6" font-family="Avenir Next, Avenir, Verdana, sans-serif" font-size="124" font-weight="600" letter-spacing="4">Wird</text>
  <text x="600" y="880" text-anchor="middle" fill="#C8A96E" font-family="Avenir Next, Avenir, Verdana, sans-serif" font-size="32" font-weight="500" letter-spacing="10">DAILY QURAN COMPANION</text>
</svg>
